<svg width="371" height="155" viewBox="0 0 371 155" fill="none" xmlns="http://www.w3.org/2000/svg">
<path d="M120.366 11.5794C127.536 9.11765 128.129 0 121.019 0C119.01 0 116.721 1.38791 115.114 4.22451L105.443 21.001C105.049 21.7185 104.588 22.3969 104.068 23.0271C101.597 19.5928 102.32 14.4667 105.785 12.2176L104.439 10.4042C96.9476 15.2163 99.1469 29.1258 111.649 29.1258C122.294 29.1157 127.235 16.2092 120.366 11.5794ZM111.539 26.3399C109.743 26.3855 107.967 25.9559 106.387 25.0938C107.056 24.2936 107.654 23.436 108.175 22.5307L114.2 12.0252L115.204 12.1265C123.519 13.8993 120.195 26.3399 111.539 26.3399ZM115.385 9.91797L118.267 4.92353C120.878 0.384967 124.212 3.04935 122.425 6.44314C121.049 9.04673 119.02 9.84706 115.385 9.91797Z" fill="white"/>
<path d="M260.305 19.2484L260.064 19.5219C258.341 21.7333 256.097 23.4746 253.536 24.5873C254.119 23.6552 254.54 22.6422 255.012 21.8824L258.959 15.0542C262.293 9.34052 256.9 7.42582 253.255 10.7183L253.978 9.47222H250.403L244.819 19.2484L244.578 19.5219C243.904 20.3094 243.078 20.9514 242.152 21.4092C241.225 21.867 240.216 22.1313 239.186 22.1863L242.55 16.3307C244.719 12.552 242.721 8.98595 239.356 8.98595C236.605 8.98595 234.476 10.0902 232.417 13.6967L230.66 16.7359L229.194 19.2484L229.003 19.4712C226.422 22.5105 223.922 24.881 222.335 24.881C221.542 24.881 221.1 24.3239 221.923 22.8549L227.075 13.7373C228.621 11.002 227.145 9.02647 225.147 9.02647C223.6 9.02647 221.953 9.88758 220.126 11.7618L225.83 1.74248H222.255L212.343 19.2484L212.142 19.4814C210.895 20.9709 209.461 22.289 207.874 23.402C209.009 19.9676 208.768 14.6997 210.967 10.0902L208.286 8.63137C206.81 10.6575 203.576 15.3886 200.352 19.1977L200.111 19.4712C197.531 22.5105 195.03 24.881 193.443 24.881C192.65 24.881 192.208 24.3239 193.032 22.8549L196.607 16.5435C197.842 14.3552 197.259 13.0788 196.095 11.6605L194.086 9.23922C193.956 9.10316 193.855 8.94234 193.787 8.76618C193.72 8.59002 193.688 8.40208 193.694 8.21336C193.7 8.02465 193.742 7.83896 193.82 7.6672C193.898 7.49543 194.009 7.34104 194.146 7.21307L194.257 7.1219L192.399 5.09575C190.391 6.92941 190.2 8.97582 191.475 10.6373L191.776 11.0526C190.2 13.3016 188.071 16.351 185.751 19.1572L185.51 19.4307C182.929 22.4699 179.635 24.8405 177.125 24.8405C174.926 24.8405 173.62 23.4526 175.267 20.5451L175.608 19.917C177.908 20.9301 182.236 20.4337 184.918 15.7634L185.43 14.8618C187.358 11.5389 185.5 9.0366 182.578 9.0366C181.198 9.04644 179.848 9.43678 178.672 10.1653C177.497 10.8939 176.542 11.9329 175.91 13.1699L172.425 19.2484L172.214 19.4915C171.542 20.2817 170.717 20.9255 169.79 21.3836C168.862 21.8417 167.853 22.1044 166.821 22.1559L170.186 16.3003C170.977 15.0575 171.44 13.6312 171.531 12.1569C171.556 11.7584 171.502 11.359 171.374 10.9814C171.245 10.6038 171.044 10.2555 170.782 9.9563C170.52 9.65713 170.202 9.41298 169.846 9.23779C169.491 9.0626 169.104 8.95981 168.709 8.93529H168.288C167.446 8.95923 166.63 9.23809 165.948 9.73562L170.487 1.80327H166.842L156.839 19.2484L156.649 19.4611C154.068 22.5003 151.567 24.8709 149.981 24.8709C149.187 24.8709 148.745 24.3137 149.569 22.8448L153.144 16.5333C154.379 14.3451 153.797 13.0686 152.632 11.6503L150.623 9.22908C150.493 9.09305 150.391 8.93189 150.324 8.75524C150.257 8.57859 150.225 8.39007 150.232 8.20095C150.238 8.01182 150.283 7.82597 150.362 7.6545C150.441 7.48303 150.554 7.32945 150.694 7.20294L150.834 7.0915L148.976 5.06536C146.968 6.89902 146.777 8.94543 148.053 10.6069L148.364 11.0222C146.787 13.2712 144.648 16.3206 142.339 19.1268L142.097 19.4003C139.517 22.4395 137.016 24.8101 135.429 24.8101C134.636 24.8101 134.194 24.2529 135.018 22.784L140.792 12.5925H138.784C138.717 11.635 138.287 10.7402 137.584 10.0933C136.882 9.4464 135.959 9.09707 135.008 9.11765C133.08 9.11765 130.408 10.6474 128.892 13.2814L123.871 22.0141C122.354 24.6886 123.429 27.1402 126.311 27.1402C127.757 27.1402 129.545 26.2082 131.262 24.7797C131.433 26.1676 132.537 27.1402 134.355 27.1402C137.307 27.1402 140.712 23.949 143.664 20.4843C145.381 18.4582 146.677 16.6752 149.569 12.7546L150.051 13.3422C150.29 13.6163 150.438 13.9585 150.476 14.3214C150.514 14.6843 150.439 15.0501 150.262 15.3683L146.486 21.9837C144.98 24.6582 146.044 27.1098 148.926 27.1098C150.995 27.1098 153.285 25.5395 155.494 23.4121C155.494 25.8739 157.311 27.2618 159.621 27.2618C160.81 27.1984 161.97 26.8648 163.013 26.2859C164.057 25.707 164.957 24.8978 165.646 23.9186C165.911 23.9389 166.176 23.9389 166.44 23.9186C168.11 23.8385 169.736 23.3519 171.18 22.5003C170.989 25.1039 172.867 27.0794 176.02 27.0794C180.037 27.0794 184.054 23.8882 187.067 20.4235C188.784 18.3974 190.079 16.6144 192.971 12.6938L193.453 13.2814C193.692 13.5555 193.841 13.8977 193.878 14.2606C193.916 14.6235 193.841 14.9893 193.664 15.3075L189.888 21.9229C188.372 24.5974 189.447 27.049 192.329 27.049C195.211 27.049 198.685 23.8578 201.638 20.3931C203.646 18.0327 205.454 15.5101 206.719 13.8082C205.313 17.5565 206.066 24.2732 202.702 24.2732C202.327 24.2357 201.969 24.0923 201.671 23.8593C201.373 23.6264 201.145 23.3134 201.015 22.9562L198.836 24.1314C199.065 24.9922 199.578 25.7488 200.29 26.2771C201.001 26.8054 201.87 27.074 202.753 27.0389C203.094 27.0389 203.425 27.0389 203.757 26.968H203.857C205.851 26.6258 207.735 25.8059 209.35 24.5771L208.125 26.7248H211.73L217.153 17.1918C222.656 10.2219 225.086 11.1134 223.54 13.798L218.9 21.9026C217.384 24.567 218.459 27.0288 221.341 27.0288C223.419 27.0288 225.709 25.4484 227.918 23.3108C227.918 27.9101 234.235 28.8016 238.111 23.868H238.905C240.231 23.8174 241.533 23.4933 242.731 22.9157L236.223 34.3026H239.828L250.513 15.5507C254.53 10.0699 257.011 12.0859 256.077 13.717L250.684 23.1487C250.587 23.4147 250.411 23.6442 250.18 23.8063C249.949 23.9684 249.675 24.0553 249.394 24.0553C249.112 24.0553 248.838 23.9684 248.607 23.8063C248.377 23.6442 248.201 23.4147 248.103 23.1487L246.095 24.1618C246.324 25.0226 246.837 25.7792 247.548 26.3075C248.26 26.8358 249.128 27.1044 250.011 27.0693H250.222C255.414 26.968 258.808 23.8477 261.731 20.4134C261.587 20.129 261.386 19.8783 261.141 19.6775C260.895 19.4768 260.61 19.3306 260.305 19.2484ZM178.962 14.183C180.971 10.617 184.666 11.2046 182.538 14.9428L182.025 15.8444C180.308 18.7925 178.008 18.7216 176.663 18.2353L178.962 14.183ZM133.16 19.8663C130.991 23.3007 128.862 24.9317 127.386 24.9317C126.592 24.9317 126.15 24.3745 126.974 22.9056L131.995 14.1324C133.923 10.769 137.729 11.6402 136.012 14.8922L133.16 19.8663ZM160.063 24.7899C159.718 24.8095 159.379 24.6924 159.118 24.4634C158.857 24.2344 158.695 23.9117 158.667 23.5641C158.662 23.5101 158.662 23.4559 158.667 23.402C158.721 22.7355 158.935 22.0923 159.29 21.5278L160.495 19.2484C160.588 19.9984 160.839 20.7197 161.23 21.3643C161.621 22.0089 162.145 22.562 162.764 22.9866C162.496 23.4866 162.106 23.9103 161.633 24.2184C161.159 24.5265 160.615 24.7091 160.053 24.7493L160.063 24.7899ZM163.789 21.2745C163.294 20.8944 162.898 20.3993 162.634 19.8312C162.37 19.2632 162.246 18.6392 162.272 18.0124C162.272 15.4493 164.743 11.2552 166.771 11.2552C166.951 11.2552 167.13 11.2912 167.296 11.3611C167.463 11.4309 167.614 11.5333 167.741 11.6623C167.867 11.7914 167.968 11.9444 168.036 12.1128C168.104 12.2811 168.138 12.4614 168.137 12.6431C168.142 12.7004 168.142 12.7581 168.137 12.8154C168.103 13.5798 167.867 14.3211 167.454 14.9631L163.789 21.2745ZM237.177 19.4712H236.997C236.438 19.4766 235.904 19.7041 235.511 20.1044C235.118 20.5047 234.898 21.0454 234.898 21.6088C234.904 22.0372 235.022 22.4563 235.239 22.8245V22.8954C233.552 25.8029 229.465 25.2559 231.594 21.5075L235.992 13.798C238.503 9.50261 241.937 11.1944 239.768 14.9428L237.177 19.4712ZM0 74.2177L5.73411 68.4229L11.4783 74.2177L5.73411 80.0327L0 74.2177ZM353.486 74.2177L359.23 68.433L364.965 74.2278L359.251 80.0327L353.486 74.2177Z" fill="white"/>
<path d="M46.9977 74.4406H49.0865V66.0118H52.3703V63.8945H46.9977V74.4406ZM61.9506 75.9804V63.1347C61.9453 62.274 61.7019 61.432 61.2476 60.7035C60.7934 59.975 60.1465 59.3889 59.3798 59.0115C59.6979 59.6385 59.8632 60.3332 59.8618 61.0376V73.8834C59.8722 74.5602 59.7324 75.2308 59.4527 75.8461C59.1729 76.4613 58.7603 77.0057 58.245 77.4393C58.7564 77.9184 59.1674 78.496 59.4537 79.1381C59.74 79.7802 59.8959 80.4736 59.912 81.1775V95.4618C59.8961 96.6996 59.3948 97.8806 58.5177 98.7464C57.6407 99.6122 56.4594 100.092 55.2323 100.081H41.6653V102.189H57.3713C58.581 102.173 59.7367 101.681 60.5921 100.818C61.4475 99.9552 61.935 98.7893 61.9506 97.569V83.2847C61.9311 82.5785 61.7708 81.8835 61.4792 81.2413C61.1877 80.599 60.7708 80.0226 60.2534 79.5464C60.7876 79.1223 61.2183 78.5804 61.5125 77.9622C61.8067 77.3441 61.9565 76.6661 61.9506 75.9804Z" fill="#636466"/>
<path d="M46.9976 92.5341H49.0863V84.0851H52.3702V81.9272H46.9976V92.5341ZM80.1369 92.5341H82.2257V66.0119H85.5095V63.8945H80.1469L80.1369 92.5341Z" fill="#636466"/>
<path d="M92.529 59.0113C92.8472 59.6384 93.0125 60.333 93.0111 61.0375V95.4819C92.9954 96.7022 92.508 97.8681 91.6526 98.7311C90.7971 99.594 89.6414 100.086 88.4318 100.102H77.3251C76.6274 100.098 75.9399 99.9316 75.3167 99.6153C75.6908 100.389 76.2717 101.041 76.9939 101.5C77.716 101.958 78.5507 102.203 79.4038 102.209H90.5306C91.7403 102.193 92.896 101.701 93.7514 100.838C94.6068 99.9753 95.0943 98.8094 95.1099 97.5891V63.1447C95.1068 62.281 94.8632 61.4356 94.4068 60.7048C93.9505 59.974 93.2999 59.3872 92.529 59.0113ZM113.296 74.4404H115.385V66.0117H118.679V63.8944H113.296V74.4404ZM125.598 83.5581C126.376 83.1955 127.035 82.6152 127.496 81.8861C127.957 81.157 128.201 80.3098 128.199 79.445V63.1346C128.2 62.2674 127.958 61.4177 127.501 60.6829C127.045 59.9482 126.392 59.3583 125.618 58.981C125.932 59.6097 126.097 60.3032 126.1 61.0071V77.3682C126.107 78.2328 125.868 79.0812 125.41 79.8122C124.952 80.5433 124.296 81.1262 123.519 81.4914L126.612 100.081H120.908L121.26 102.188H128.681L125.598 83.5581ZM116.138 81.8865H113.296V100.081H107.964V102.199H115.385V84.0849H116.49L116.138 81.8865ZM145.452 92.4934H147.55V66.0117H150.834V63.8944H145.452V92.4934Z" fill="#636466"/>
<path d="M157.844 59.0115C158.163 59.6381 158.328 60.333 158.326 61.0376V95.4821C158.31 96.7024 157.823 97.8682 156.967 98.7312C156.112 99.5942 154.956 100.086 153.746 100.102H142.6C141.902 100.098 141.214 99.9317 140.591 99.6154C140.965 100.389 141.546 101.041 142.268 101.5C142.99 101.958 143.825 102.204 144.678 102.209H155.815C157.025 102.193 158.18 101.701 159.036 100.838C159.891 99.9754 160.379 98.8096 160.394 97.5893V63.1448C160.394 62.2843 160.155 61.4412 159.704 60.7107C159.253 59.9802 158.609 59.3916 157.844 59.0115ZM178.601 92.534H180.7V66.0118H183.984V63.8945H178.601V92.534Z" fill="#636466"/>
<path d="M190.993 59.0114C191.311 59.6385 191.476 60.3331 191.475 61.0376V95.482C191.459 96.7023 190.972 97.8682 190.117 98.7311C189.261 99.5941 188.105 100.086 186.896 100.102H173.279V102.209H188.985C190.194 102.193 191.35 101.701 192.205 100.838C193.061 99.9754 193.548 98.8095 193.564 97.5892V63.1448C193.56 62.2824 193.318 61.4382 192.864 60.7077C192.409 59.9772 191.761 59.3896 190.993 59.0114ZM212.132 58.5251V100.061H206.8V102.178H214.221V58.5251H212.132ZM245.151 58.5251V100.061H239.226L239.818 102.178H247.25V58.5251H245.151ZM232.287 81.0457V100.081H226.954V102.199H234.375V88.3297L232.287 81.0457ZM264.693 84.0849H270.829V81.9271H262.604C261.906 81.9236 261.219 81.7572 260.596 81.4408C260.961 82.2275 261.539 82.8936 262.265 83.3617C262.99 83.8297 263.832 84.0805 264.693 84.0849ZM267.535 86.8506L265.436 87.3369V92.534H267.535V86.8506ZM277.828 59.0114C278.146 59.6385 278.312 60.3331 278.31 61.0376V69.9019L272.918 71.1582V73.7516L280.399 71.999V63.1346C280.394 62.274 280.15 61.4319 279.696 60.7034C279.242 59.9749 278.595 59.3889 277.828 59.0114Z" fill="#636466"/>
<path d="M277.828 77.0441C278.146 77.6712 278.312 78.3658 278.31 79.0702V95.482C278.295 96.7023 277.807 97.8682 276.952 98.7311C276.096 99.5941 274.941 100.086 273.731 100.102H262.594C261.896 100.098 261.209 99.9317 260.586 99.6153C260.96 100.389 261.541 101.041 262.263 101.5C262.985 101.958 263.82 102.204 264.673 102.209H275.8C277.009 102.193 278.165 101.701 279.02 100.838C279.876 99.9754 280.363 98.8095 280.379 97.5892V81.1673C280.377 80.3086 280.137 79.4675 279.686 78.739C279.235 78.0105 278.592 77.4235 277.828 77.0441ZM265.436 63.8742V74.4405H267.535V66.0118H270.819V63.8944L265.436 63.8742ZM299.258 81.9271H298.575V100.081H293.233V102.199H300.654V86.4657L299.258 81.9271ZM314.462 58.5251H311.711L305.454 78.1889L312.384 100.081H306.358L306.941 101.945L307.001 102.199H314.482L307.553 80.2961L314.482 58.5251H314.462ZM331.916 58.5251V100.061H326.593V102.178H334.004V58.5251H331.916Z" fill="#636466"/>
<path d="M168.609 125.469H170.025C175.478 125.753 179.756 127.222 182.467 130.251C185.219 127.211 189.497 125.732 194.98 125.469H196.336C208.497 126.3 214.04 135.093 223.751 138.831C225.26 139.524 226.903 139.87 228.561 139.844C231.052 139.571 232.638 137.028 232.317 134.192C231.975 131.152 229.023 128.508 225.729 129.967C225.297 130.172 224.9 130.445 224.554 130.777C224.303 131.01 224.022 131.618 223.379 131.395C222.777 130.889 223.379 130.149 223.691 129.724C224.285 128.657 225.185 127.796 226.273 127.254C227.361 126.712 228.585 126.513 229.786 126.685C235.44 127.09 240.501 132.094 239.638 139.672C237.71 150.948 227.487 153.987 215.366 155H211.419C200.841 154.564 190.695 150.651 182.528 143.856C174.299 150.634 164.118 154.543 153.506 155H149.629C137.418 153.916 127.094 150.948 125.297 139.338C124.614 131.071 129.495 127.009 135.158 126.594C136.37 126.42 137.605 126.617 138.704 127.158C139.803 127.7 140.716 128.562 141.324 129.633C141.605 130.099 142.128 130.818 141.636 131.375C141.023 131.487 140.722 131 140.461 130.757C140.094 130.371 139.654 130.062 139.168 129.849C138.682 129.635 138.159 129.52 137.629 129.511C133.752 129.369 131.523 133.715 133.07 137.221C133.373 137.901 133.842 138.492 134.435 138.939C135.027 139.385 135.721 139.673 136.454 139.774C138.11 139.785 139.75 139.44 141.264 138.76C142.614 138.238 143.915 137.594 145.15 136.836C152.531 132.52 158.306 126.391 168.609 125.469Z" fill="white"/>
<path d="M363.167 83.9937L368.901 78.199L371 80.3163L365.256 86.1111L363.167 83.9937ZM9.68066 83.9937L15.4148 78.2091L17.5136 80.3163L11.8096 86.1111L9.68066 83.9937Z" fill="#636466"/>
<path d="M56.2853 66.5059C56.2892 67.1813 56.1423 67.849 55.8555 68.4593C55.5686 69.0696 55.1492 69.6069 54.6283 70.0314C55.1397 70.5105 55.5507 71.0881 55.837 71.7302C56.1234 72.3723 56.2792 73.0657 56.2953 73.7696V88.0539C56.2797 89.2742 55.7923 90.4401 54.9368 91.3031C54.0814 92.166 52.9257 92.6578 51.7161 92.6735H36V49H51.706C52.9189 49.0053 54.0806 49.4938 54.9382 50.3589C55.7959 51.2241 56.28 52.3961 56.2853 53.6196V66.5059ZM48.8038 56.4866H43.4212V67.0327H48.8038V56.4866ZM48.8038 74.5193H43.4212V85.1261H48.8038V74.5193ZM84.8554 49C86.0683 49.0053 87.23 49.4938 88.0876 50.3589C88.9453 51.2241 89.4294 52.3961 89.4347 53.6196V88.064C89.4191 89.2844 88.9316 90.4502 88.0762 91.3132C87.2208 92.1762 86.0651 92.6679 84.8554 92.6837H73.7086C72.4973 92.6731 71.3386 92.183 70.4821 91.3189C69.6256 90.4549 69.1398 89.286 69.1293 88.064V53.6196C69.1293 52.3944 69.6118 51.2194 70.4705 50.353C71.3293 49.4867 72.4941 49 73.7086 49H84.8554ZM81.9432 56.4866H76.5706V85.1261H81.9532L81.9432 56.4866ZM115.595 92.6735L112.582 74.5193H109.74V92.6735H102.319V49H118.025C118.622 49.004 119.213 49.1266 119.764 49.3609C120.314 49.5952 120.813 49.9366 121.233 50.3656C121.652 50.7946 121.984 51.3027 122.209 51.8611C122.434 52.4194 122.548 53.0169 122.544 53.6196V69.9706C122.542 70.8398 122.293 71.6902 121.824 72.4197C121.356 73.1493 120.689 73.727 119.903 74.0837L122.996 92.6735H115.595ZM115.103 56.4866H109.72V67.0327H115.103V56.4866ZM150.17 49C151.383 49.0053 152.545 49.4938 153.402 50.3589C154.26 51.2241 154.744 52.3961 154.749 53.6196V88.064C154.734 89.2844 154.246 90.4502 153.391 91.3132C152.535 92.1762 151.38 92.6679 150.17 92.6837H139.043C137.832 92.6731 136.673 92.183 135.817 91.3189C134.96 90.4549 134.475 89.286 134.464 88.064V53.6196C134.464 52.4049 134.938 51.239 135.784 50.3744C136.63 49.5097 137.779 49.016 138.983 49H150.17ZM147.258 56.4866H141.875V85.1261H147.258V56.4866ZM183.319 49C184.532 49.0053 185.694 49.4938 186.552 50.3589C187.409 51.2241 187.893 52.3961 187.899 53.6196V88.064C187.883 89.2844 187.396 90.4502 186.54 91.3132C185.685 92.1762 184.529 92.6679 183.319 92.6837H167.613V49H183.319ZM180.417 56.4866H175.035V85.1261H180.417V56.4866ZM201.134 49H208.556V92.6735H201.134V49ZM241.584 49V92.6735H234.163L228.72 73.5974V92.6735H221.329V49H228.69L234.133 66.901V49H241.584ZM270.155 67.0327C271.367 67.038 272.529 67.5264 273.387 68.3916C274.244 69.2568 274.729 70.4287 274.734 71.6523V88.064C274.718 89.2844 274.231 90.4502 273.375 91.3132C272.52 92.1762 271.364 92.6679 270.155 92.6837H259.028C257.82 92.6678 256.666 92.1754 255.814 91.3119C254.962 90.4484 254.479 89.2825 254.469 88.064V79.0781L261.89 77.3356V85.1363H267.272V74.5193H259.048C258.448 74.5206 257.853 74.4027 257.299 74.1723C256.744 73.9419 256.239 73.6035 255.814 73.1764C255.389 72.7493 255.051 72.2419 254.82 71.6831C254.589 71.1244 254.47 70.5253 254.469 69.9199V53.6196C254.469 52.3979 254.948 51.226 255.803 50.3602C256.657 49.4944 257.817 49.0054 259.028 49H270.175C271.388 49.0053 272.549 49.4938 273.407 50.3589C274.264 51.2241 274.749 52.3961 274.754 53.6196V62.4536L267.272 64.2062V56.4866H261.89V67.0327H270.155ZM301.888 70.781L308.817 92.6837H301.336L301.275 92.4304L295.712 74.5294H295.029V92.6735H287.608V49H295.029V67.0327H295.642L301.336 49H308.877L301.888 70.781ZM320.968 49H328.389V92.6735H320.968V49Z" fill="white"/>
</svg>
